<?xml version="1.0" encoding="utf-8" ?>
<svg xmlns="http://www.w3.org/2000/svg" xmlns:xlink="http://www.w3.org/1999/xlink" width="512" height="512">
	<path fill="#0D3B66" d="M0 0L0 512L512 512L512 0L0 0Z"/>
	<path fill="#F4D35E" d="M261.193 436.303C256.258 436.314 251.267 436.442 246.343 436.098C162.277 430.243 93.0645 368.204 78.0672 285.933C66.3874 221.861 91.2218 156.37 142.178 115.416C172.581 90.9812 212.151 75.7542 251.118 74.8076C256.387 74.8056 261.798 74.5735 267.049 74.918C353.831 80.6114 426.713 147.059 436.106 234.212C437.248 244.811 437.855 255.623 437.11 266.276C431.461 346.92 376.664 412.242 298.259 431.293C285.881 434.3 273.904 436.221 261.193 436.303ZM251.011 103.659C218.618 105.112 184.247 118.259 159.054 138.987C124.88 167.104 104.396 209.867 104.409 254.241L104.511 264.754C104.616 267.14 104.974 269.524 105.223 271.897C112.83 344.489 173.94 401.496 246.094 406.917C251.299 407.308 256.644 407.114 261.864 407.088C276.027 407.034 290.269 404.273 303.673 399.77C343.171 386.498 373.185 360.264 392.25 323.72C406.309 296.771 411.29 266.931 407.723 236.69C399.19 164.341 339.351 109.547 266.706 103.805C261.794 103.417 256.743 103.601 251.818 103.644L251.011 103.659Z"/>
	<path fill="#F4D35E" d="M263.717 392.239C258.665 392.334 253.464 392.564 248.43 392.192C185.197 387.522 131.969 340.855 121.305 277.579C114.685 238.302 126.151 194.626 153.251 165.123C178.176 137.989 212.776 120.221 249.926 118.61C255.402 118.436 261.078 118.332 266.541 118.757C337.78 124.304 393.775 183.441 393.991 254.684L393.854 263.538C390.187 321.292 349.132 372.287 293.254 387.523C283.647 390.143 273.637 391.555 263.717 392.239ZM255.715 158.222C210.784 158.685 173.787 190.484 163.475 233.445C162.928 235.722 162.755 238.018 162.32 240.301L257.897 240.306L351.067 240.302C345.092 197.42 309.391 162.645 266.258 158.568C262.758 158.237 259.226 158.253 255.715 158.222ZM161.395 269.608C162.092 274.399 163.397 279.096 164.954 283.864C177.89 323.518 214.228 352.631 256.613 352.463C259.555 352.452 262.648 352.545 265.558 352.136L265.805 352.1C288.391 348.882 307.276 341.422 323.647 324.545C337.206 310.288 346.945 293.047 350.773 273.712C351.018 272.476 350.958 270.841 351.421 269.714L161.395 269.608Z"/>
</svg>
